<svg width="15" height="19" fill="none" xmlns="http://www.w3.org/2000/svg"><path fill-rule="evenodd" clip-rule="evenodd" d="M7.998.085c.376.363.76.72 1.127 1.091.37.374.731.756 1.082 1.147a20.73 20.73 0 011.688 2.161c.47.692.895 1.412 1.261 2.165.278.571.532 1.154.724 1.76.145.458.268.923.384 1.389.14.562.224 1.134.246 1.714.015.395.036.791.022 1.186-.011.336-.064.67-.107 1.005-.071.539-.253 1.047-.461 1.545a5.894 5.894 0 01-.754 1.306c-.388.508-.86.917-1.411 1.233-.399.228-.82.407-1.265.521a16.79 16.79 0 01-1.035.232 7.176 7.176 0 01-.743.096c-.597.05-1.196.095-1.796.07-.363-.015-.726-.04-1.086-.083a9.634 9.634 0 01-.986-.165 7.77 7.77 0 01-1.515-.503 6.068 6.068 0 01-1.104-.64 4.755 4.755 0 01-1.303-1.443 4.783 4.783 0 01-.512-1.288 3.56 3.56 0 01-.097-.61 11.3 11.3 0 01-.03-1.105c.01-.297.056-.596.113-.889.066-.335.154-.666.25-.995.148-.516.356-1.01.588-1.494a15.5 15.5 0 01.883-1.59 16.68 16.68 0 011.134-1.595c.311-.383.641-.75.962-1.125.014-.017.02-.042.029-.063l.034.024.005.09c.01.219.004.44.034.654.078.559.234 1.095.538 1.577.111.176.24.341.362.51.038.055.075.054.13.014a9.755 9.755 0 001.576-1.433 6.085 6.085 0 00.992-1.578c.16-.367.278-.746.357-1.135a5.979 5.979 0 00.107-1.622c-.013-.174-.016-.35-.046-.52a15.61 15.61 0 00-.198-.962c-.052-.216-.13-.426-.196-.638l.017-.014z" fill="#fff"/></svg>