<svg width="100" height="100" viewBox="0 0 100 100" fill="none" xmlns="http://www.w3.org/2000/svg">
<path d="M30 33.3333V43.3333L36.6667 46.6666" stroke="#312F44" stroke-width="2" stroke-miterlimit="10" stroke-linecap="round" stroke-linejoin="round"/>
<path d="M76.6667 53.3333V40C76.6667 38.16 78.16 36.6667 80 36.6667H89.5233L88.3967 34.04C87.3467 31.59 84.9367 30 82.27 30H60V76.6667H70.1667C69.8867 75.2867 69.94 73.79 70.4567 72.2467C71.33 69.6333 73.5733 67.5667 76.25 66.92C81.7567 65.5867 86.6667 69.72 86.6667 75C86.6667 75.57 86.6067 76.1267 86.5 76.6667H96.6667V53.3333H76.6667Z" fill="#312F44"/>
<path d="M78.3333 83.3334C82.9357 83.3334 86.6667 79.6024 86.6667 75.0001C86.6667 70.3977 82.9357 66.6667 78.3333 66.6667C73.731 66.6667 70 70.3977 70 75.0001C70 79.6024 73.731 83.3334 78.3333 83.3334Z" stroke="#312F44" stroke-width="2" stroke-miterlimit="10"/>
<path d="M25 83.3334C29.6024 83.3334 33.3333 79.6024 33.3333 75.0001C33.3333 70.3977 29.6024 66.6667 25 66.6667C20.3976 66.6667 16.6667 70.3977 16.6667 75.0001C16.6667 79.6024 20.3976 83.3334 25 83.3334Z" stroke="#312F44" stroke-width="2" stroke-miterlimit="10"/>
<path d="M93.3333 73.3333H96.6667" stroke="#312F44" stroke-width="2" stroke-miterlimit="10" stroke-linecap="round"/>
<path d="M3.33333 73.3333H9.99999" stroke="#312F44" stroke-width="2" stroke-miterlimit="10" stroke-linecap="round"/>
<path d="M53.3333 16.6667H10C6.31666 16.6667 3.33333 19.6501 3.33333 23.3334V76.6667H16.8333C16.5533 75.2867 16.6067 73.7901 17.1233 72.2467C17.9967 69.6334 20.24 67.5667 22.92 66.9201C28.4233 65.5867 33.3333 69.7201 33.3333 75.0001C33.3333 75.5701 33.2733 76.1267 33.1667 76.6667H60V23.3334C60 19.6501 57.0167 16.6667 53.3333 16.6667ZM30 60.0001C20.7967 60.0001 13.3333 52.5367 13.3333 43.3334C13.3333 34.1301 20.7967 26.6667 30 26.6667C39.2033 26.6667 46.6667 34.1301 46.6667 43.3334C46.6667 52.5367 39.2033 60.0001 30 60.0001Z" fill="#312F44"/>
</svg>

